<?xml version="1.0" standalone="no"?>
<!DOCTYPE svg PUBLIC "-//W3C//DTD SVG 20010904//EN"
 "http://www.w3.org/TR/2001/REC-SVG-20010904/DTD/svg10.dtd">
<svg version="1.0" xmlns="http://www.w3.org/2000/svg"
 width="372.000000pt" height="372.000000pt" viewBox="0 0 372.000000 372.000000"
 preserveAspectRatio="xMidYMid meet">
<metadata>
Created by potrace 1.14, written by Peter Selinger 2001-2017
</metadata>
<g transform="translate(0.000000,372.000000) scale(0.100000,-0.100000)"
fill="#000000" stroke="none">
<path d="M2163 3712 c-45 -4 -86 -54 -81 -98 4 -33 -54 -112 -437 -599 -13
-16 -75 -95 -137 -175 -62 -80 -121 -154 -130 -164 -10 -11 -18 -23 -18 -28 0
-18 -28 -5 -84 37 -33 25 -67 45 -76 45 -22 0 -47 -28 -179 -199 -134 -173
-133 -162 -23 -243 23 -17 42 -34 42 -38 0 -4 -13 -25 -29 -46 -30 -40 -192
-247 -214 -274 -7 -8 -84 -107 -172 -220 -217 -279 -308 -394 -320 -402 -5 -4
-19 -8 -31 -8 -11 0 -32 -12 -46 -28 -86 -90 36 -217 131 -136 26 21 31 33 31
68 0 26 7 51 20 66 33 43 106 135 400 504 157 197 293 368 303 380 17 19 18
19 9 1 -59 -127 -96 -244 -118 -374 -3 -18 -8 -43 -10 -55 -22 -114 -21 -431
2 -561 53 -297 156 -521 329 -716 137 -154 372 -299 597 -368 110 -34 168 -46
308 -66 72 -10 298 -13 390 -4 234 22 440 90 633 210 93 58 266 197 267 214 0
6 -59 67 -131 135 -72 69 -174 167 -227 217 -53 51 -99 93 -102 93 -3 0 -19
-13 -36 -29 -214 -201 -624 -255 -927 -122 -303 132 -472 471 -421 843 30 229
127 403 289 525 142 107 310 163 493 164 191 1 356 -59 556 -205 12 -8 18 -2
315 304 l131 135 -57 53 c-220 200 -485 319 -778 347 -84 8 -283 8 -351 0
-160 -19 -374 -66 -401 -88 -7 -5 -13 -7 -13 -4 0 3 -42 -13 -92 -35 -97 -43
-242 -129 -292 -172 -16 -15 -31 -26 -33 -26 -3 0 24 37 59 83 36 45 100 129
144 187 43 58 84 110 89 116 6 6 73 94 150 195 76 101 164 216 195 255 30 40
62 81 70 93 8 11 22 21 32 21 29 0 65 21 76 44 20 42 22 58 8 90 -16 39 -58
62 -103 58z m-846 -1264 c-23 -27 -63 -78 -88 -113 l-45 -63 -72 54 c-40 30
-72 57 -72 60 0 6 20 33 118 156 l53 68 74 -56 75 -56 -43 -50z"/>
</g>
</svg>
