<svg width="72" height="72" viewBox="0 0 72 72" fill="none" xmlns="http://www.w3.org/2000/svg">
<path fill-rule="evenodd" clip-rule="evenodd" d="M43.3409 49.131L60.8819 31.641C63.4079 29.124 64.6709 27.864 65.3339 26.265C65.9999 24.66 65.9999 22.881 65.9999 19.32V17.619C65.9999 12.141 65.9999 9.402 64.2929 7.701C62.5859 6 59.8409 6 54.3479 6H52.6379C49.0679 6 47.2829 6 45.6779 6.663C44.0699 7.326 42.8069 8.586 40.2779 11.103L22.7399 28.593C19.7879 31.533 17.9579 33.36 17.2499 35.121C17.0292 35.6557 16.915 36.2285 16.9139 36.807C16.9139 39.213 18.8549 41.151 22.7399 45.024L23.2619 45.543L29.3759 39.336C29.5834 39.1254 29.8302 38.9578 30.1024 38.8426C30.3747 38.7274 30.6669 38.667 30.9625 38.6648C31.258 38.6626 31.5512 38.7186 31.8251 38.8296C32.099 38.9407 32.3484 39.1046 32.5589 39.312C32.7695 39.5194 32.9372 39.7663 33.0523 40.0385C33.1675 40.3107 33.2279 40.603 33.2302 40.8985C33.2324 41.1941 33.1764 41.4872 33.0653 41.7611C32.9543 42.0351 32.7904 42.2844 32.5829 42.495L26.4479 48.72L26.8589 49.131C30.7439 53.001 32.6879 54.939 35.0999 54.939C35.6339 54.939 36.1439 54.846 36.6569 54.657C38.4659 53.991 40.3139 52.149 43.3409 49.131ZM51.5819 28.593C50.4877 29.6832 49.0061 30.2953 47.4614 30.2953C45.9168 30.2953 44.4352 29.6832 43.3409 28.593C42.8001 28.0545 42.371 27.4145 42.0782 26.7097C41.7854 26.0049 41.6347 25.2492 41.6347 24.486C41.6347 23.7228 41.7854 22.9671 42.0782 22.2623C42.371 21.5575 42.8001 20.9175 43.3409 20.379C44.4352 19.2888 45.9168 18.6767 47.4614 18.6767C49.0061 18.6767 50.4877 19.2888 51.5819 20.379C52.1227 20.9175 52.5518 21.5575 52.8446 22.2623C53.1374 22.9671 53.2882 23.7228 53.2882 24.486C53.2882 25.2492 53.1374 26.0049 52.8446 26.7097C52.5518 27.4145 52.1227 28.0545 51.5819 28.593Z" fill="white"/>
<path opacity="0.5" d="M27.102 17.889L19.473 25.5C18.072 26.898 16.785 28.179 15.768 29.34C15.0807 30.1061 14.4595 30.9291 13.911 31.8L13.839 31.725L13.554 31.443C12.2269 30.1566 10.6671 29.1344 8.95797 28.431L8.58897 28.281L7.45197 27.831C7.09788 27.6914 6.78413 27.4658 6.53904 27.1746C6.29395 26.8834 6.12524 26.5358 6.04813 26.163C5.97103 25.7903 5.98796 25.4043 6.09739 25.0397C6.20683 24.6752 6.40533 24.3436 6.67497 24.075C10.035 20.721 14.07 16.698 16.02 15.891C17.7128 15.1807 19.5667 14.9432 21.384 15.204C23.022 15.447 24.57 16.29 27.102 17.889ZM40.131 57.939C40.746 58.563 41.151 59.004 41.523 59.475C42.009 60.096 42.444 60.756 42.825 61.449C43.251 62.229 43.584 63.06 44.247 64.725C44.3777 65.0394 44.5838 65.3167 44.8471 65.5325C45.1104 65.7483 45.4228 65.8959 45.7567 65.9623C46.0906 66.0288 46.4357 66.0119 46.7615 65.9133C47.0874 65.8147 47.3839 65.6374 47.625 65.397L47.877 65.148C51.237 61.797 55.272 57.774 56.082 55.833C56.7935 54.1468 57.031 52.2983 56.769 50.487C56.526 48.852 55.683 47.307 54.078 44.781L46.422 52.413C44.988 53.844 43.674 55.155 42.483 56.181C41.772 56.799 40.992 57.411 40.131 57.939Z" fill="white"/>
</svg>
