<svg width="16" height="16" viewBox="0 0 16 16" fill="none" xmlns="http://www.w3.org/2000/svg">
<path fill-rule="evenodd" clip-rule="evenodd" d="M1.45 3.33299C0.649 3.33299 0 3.98299 0 4.78299V9.76899C0 11.369 1.298 12.667 2.898 12.667H9.884C10.684 12.667 11.334 12.018 11.334 11.217V6.23299C11.3337 5.46421 11.0282 4.72699 10.4846 4.18338C9.941 3.63977 9.20378 3.33426 8.435 3.33399H1.45V3.33299ZM16 4.64299V11.358C16 11.902 15.382 12.218 14.941 11.897L12.882 10.399C12.712 10.2753 12.5736 10.1132 12.4782 9.92586C12.3828 9.73851 12.333 9.53124 12.333 9.32099V6.67899C12.333 6.25199 12.537 5.85199 12.883 5.60099L14.941 4.10299C15.0405 4.03069 15.1581 3.98732 15.2808 3.97769C15.4035 3.96806 15.5264 3.99255 15.636 4.04844C15.7456 4.10433 15.8376 4.18944 15.9019 4.29437C15.9661 4.3993 16.0001 4.51996 16 4.64299Z" fill="white"/>
</svg>
